<?xml version="1.0" encoding="UTF-8" standalone="no" ?>
<!DOCTYPE svg PUBLIC "-//W3C//DTD SVG 1.1//EN" "http://www.w3.org/Graphics/SVG/1.1/DTD/svg11.dtd">
<svg xmlns="http://www.w3.org/2000/svg" xmlns:xlink="http://www.w3.org/1999/xlink" version="1.1" width="500" height="500" viewBox="0 0 500 500" xml:space="preserve">
<desc>Created with Fabric.js 4.6.0</desc>
<defs>
</defs>
<g transform="matrix(1.18 0 0 1.18 250 251.8)" id="4WR9UjW951Z0MJMFiLzyh"  >
<path style="stroke: none; stroke-width: 1; stroke-dasharray: none; stroke-linecap: butt; stroke-dashoffset: 0; stroke-linejoin: miter; stroke-miterlimit: 4; fill: rgb(247,47,58); fill-rule: nonzero; opacity: 1;" vector-effect="non-scaling-stroke"  transform=" translate(-350, -268.33)" d="M 385 58.332 C 409.992 58.332 430.395 77.98 431.609 102.672 L 431.667594 105.0001 L 431.667594 128.3321 L 524.999594 128.3321 C 531.440994 128.3321 536.667594 133.5587 536.667594 140.0001 C 536.667594 146.44150000000002 531.440994 151.6681 524.999594 151.6681 L 501.667594 151.6681 L 501.667594 419.9981 C 501.667594 451.36510000000004 476.905594 476.9511 445.862594 478.2791 L 443.331394 478.329881 L 256.67139399999996 478.329881 C 225.30039399999995 478.329881 199.71439399999997 453.571881 198.39039399999996 422.528881 L 198.33570599999996 419.997681 L 198.33570599999996 151.66768100000002 L 175.00370599999997 151.66768100000002 C 168.56230599999998 151.66768100000002 163.33570599999996 146.44108100000003 163.33570599999996 139.999681 C 163.33570599999996 133.558281 168.56230599999995 128.331681 175.00370599999997 128.331681 L 268.33570599999996 128.331681 L 268.33570599999996 104.99968100000001 C 268.33570599999996 80.007681 287.983706 59.60468100000001 312.675706 58.39068100000001 L 315.003806 58.33208700000001 z M 478.332 151.668 L 221.67199999999997 151.668 L 221.67199999999997 419.998 C 221.67199999999997 438.639 236.24199999999996 453.873 254.61299999999997 454.93899999999996 L 256.67159999999996 454.997594 L 443.3316 454.997594 C 461.9726 454.997594 477.2106 440.427594 478.2726 422.052594 L 478.331193 419.997894 z M 303.332 233.332 C 309.77729999999997 233.332 315 238.55859999999998 315 245 L 315 361.67 C 315 368.1114 309.7773 373.334 303.332 373.334 C 296.8906 373.334 291.668 368.1113 291.668 361.67 L 291.668 245 C 291.668 238.5586 296.8907 233.332 303.332 233.332 z M 396.668 233.332 C 403.1094 233.332 408.332 238.55859999999998 408.332 245 L 408.332 361.67 C 408.332 368.1114 403.1093 373.334 396.668 373.334 C 390.22270000000003 373.334 385 368.1113 385 361.67 L 385 245 C 385 238.5586 390.2227 233.332 396.668 233.332 z M 385 81.672 L 315 81.672 C 302.699 81.672 292.621 91.1876 291.73 103.262 L 291.6675 105.0042 L 291.6675 128.3362 L 408.3275 128.3362 L 408.3275 105.0042 C 408.3275 93.3162 399.73769999999996 83.63719999999999 388.5265 81.9382 L 386.7374 81.73508 z" stroke-linecap="round" />
</g>
</svg>