<?xml version="1.0" encoding="UTF-8" standalone="no" ?>
<!DOCTYPE svg PUBLIC "-//W3C//DTD SVG 1.1//EN" "http://www.w3.org/Graphics/SVG/1.1/DTD/svg11.dtd">
<svg xmlns="http://www.w3.org/2000/svg" xmlns:xlink="http://www.w3.org/1999/xlink" version="1.1" width="500" height="500" viewBox="0 0 500 500" xml:space="preserve">
<desc>Created with Fabric.js 4.6.0</desc>
<defs>
</defs>
<g transform="matrix(1.15 0 0 1.15 335.91 163.71)" id="25wm_4k3kFxhC2GTA13Ig"  >
<path style="stroke: none; stroke-width: 1; stroke-dasharray: none; stroke-linecap: butt; stroke-dashoffset: 0; stroke-linejoin: miter; stroke-miterlimit: 4; fill: rgb(49,168,247); fill-rule: nonzero; opacity: 1;" vector-effect="non-scaling-stroke"  transform=" translate(-424.79, -205.22)" d="M 550.37 80.414 L 549.97937 79.96478 L 549.97937 79.968686 C 539.75237 69.765686 525.89737 64.030686 511.45237000000003 64.030686 C 497.00337 64.030686 483.14737 69.765086 472.92537000000004 79.968686 L 286.8853700000001 266.058686 C 284.78377000000006 268.152486 283.59627000000006 270.99228600000004 283.5845700000001 273.957086 L 283.5845700000001 334.383086 L 283.5845700000001 334.37918 C 283.5845700000001 337.35188 284.7642700000001 340.19948 286.8618700000001 342.30108 C 288.96347000000014 344.39878 291.81107000000014 345.57838000000004 294.7837700000001 345.57838000000004 L 356.3857700000001 346.41822 L 356.38186300000007 346.41822 C 359.35066300000005 346.40650200000005 362.1865630000001 345.21902 364.28026300000005 343.11742000000004 L 550.0302630000001 157.07742000000005 C 560.186263 146.92942000000005 565.9212630000001 133.17542000000003 565.9872630000001 118.81542000000005 C 566.0497630000001 104.45642000000005 560.4364630000001 90.65542000000005 550.3662630000001 80.41342000000004 z M 534.1320000000001 141.23000000000002 L 351.4620000000001 323.96000000000004 L 305.8760000000001 323.34281000000004 L 305.8760000000001 278.54181000000005 L 488.77600000000007 95.81181000000007 C 494.7096000000001 89.90161000000006 502.72100000000006 86.55401000000006 511.09600000000006 86.47981000000007 C 519.4671000000001 86.40559100000007 527.537 89.61651000000008 533.5730000000001 95.42121000000007 L 533.9636200000001 95.87043000000007 L 533.9675270000001 95.86652400000007 C 539.9948270000001 101.86262400000007 543.4011270000001 109.99952400000006 543.4441270000001 118.49952400000006 C 543.4870960000001 127.00342400000007 540.1589270000001 135.17552400000005 534.190227 141.22652400000007 z" stroke-linecap="round" />
</g>
<g transform="matrix(1.15 0 0 1.15 234.24 265.33)" id="6U-BJqmowJPYAcI70ilyY"  >
<path style="stroke: none; stroke-width: 1; stroke-dasharray: none; stroke-linecap: butt; stroke-dashoffset: 0; stroke-linejoin: miter; stroke-miterlimit: 4; fill: rgb(49,168,247); fill-rule: nonzero; opacity: 1;" vector-effect="non-scaling-stroke"  transform=" translate(-336.56, -293.41)" d="M 178.81 495.94 L 494.31 495.94 C 506.193 495.94 517.587 491.2173 525.99 482.815 C 534.3884 474.4166 539.111 463.022 539.111 451.139 L 539.111 293.439 C 539.111 287.2515 534.0954 282.23600000000005 527.908 282.23600000000005 C 521.7244000000001 282.23600000000005 516.7090000000001 287.25160000000005 516.7090000000001 293.439 L 516.7090000000001 451.139 C 516.7090000000001 457.0804 514.3496 462.776 510.15040000000005 466.979 C 505.94730000000004 471.1782 500.25200000000007 473.5376 494.3104000000001 473.5376 L 178.81040000000007 473.5376 C 172.86900000000009 473.5376 167.16940000000008 471.1782 162.97040000000007 466.979 C 158.77120000000008 462.7759 156.40790000000007 457.0806 156.40790000000007 451.139 L 156.40790000000007 135.68900000000002 C 156.40790000000007 129.74760000000003 158.77120000000008 124.05200000000002 162.97040000000007 119.84900000000002 C 167.16960000000006 115.64980000000001 172.86880000000008 113.29040000000002 178.81040000000007 113.29040000000002 L 336.5604000000001 113.29040000000002 C 342.7479000000001 113.29040000000002 347.76340000000005 108.27480000000001 347.76340000000005 102.09140000000002 C 347.76340000000005 95.90390000000002 342.74780000000004 90.88840000000002 336.5604000000001 90.88840000000002 L 178.81040000000007 90.88840000000002 C 166.92740000000006 90.88840000000002 155.53340000000009 95.61110000000002 147.13040000000007 104.00940000000001 C 138.72810000000007 112.41170000000001 134.00940000000006 123.80640000000001 134.00940000000006 135.6894 L 134.00940000000006 451.1394 C 134.00940000000006 463.0224 138.72820000000004 474.4164 147.13040000000007 482.8154 C 155.53270000000006 491.21770000000004 166.92740000000006 495.9404 178.81040000000007 495.9404 z" stroke-linecap="round" />
</g>
</svg>